<svg xmlns="http://www.w3.org/2000/svg" xmlns:xlink="http://www.w3.org/1999/xlink" width="500" zoomAndPan="magnify" viewBox="0 0 375 374.999991" height="500" preserveAspectRatio="xMidYMid meet" version="1.0"><defs><g/><clipPath id="06dfbbf943"><rect x="0" width="356" y="0" height="219"/></clipPath></defs><g transform="matrix(1, 0, 0, 1, 12, 86)"><g clip-path="url(#06dfbbf943)"><g fill="#00562c" fill-opacity="1"><g transform="translate(1.33454, 154.964626)"><g><path d="M 57.75 0 C 51.894531 0 46.75 -1.300781 42.3125 -3.90625 C 37.882812 -6.507812 34.410156 -10.003906 31.890625 -14.390625 C 29.378906 -18.785156 28.125 -23.679688 28.125 -29.078125 L 28.125 -76.828125 L 2.0625 -76.828125 L 2.0625 -96.03125 L 77.09375 -96.03125 L 77.09375 -76.828125 L 51.171875 -76.828125 L 51.171875 -27.03125 C 51.171875 -24.925781 51.898438 -23.09375 53.359375 -21.53125 C 54.828125 -19.976562 56.660156 -19.203125 58.859375 -19.203125 L 66.40625 -19.203125 L 66.40625 0 Z M 57.75 0 "/></g></g></g><g fill="#00562c" fill-opacity="1"><g transform="translate(71.016472, 154.964626)"><g><path d="M 7.953125 0 L 7.953125 -70.375 L 29.359375 -70.375 L 29.359375 0 Z M 18.65625 -78.328125 C 15.269531 -78.328125 12.34375 -79.5625 9.875 -82.03125 C 7.40625 -84.5 6.171875 -87.425781 6.171875 -90.8125 C 6.171875 -94.195312 7.40625 -97.144531 9.875 -99.65625 C 12.34375 -102.175781 15.269531 -103.4375 18.65625 -103.4375 C 22.039062 -103.4375 24.96875 -102.175781 27.4375 -99.65625 C 29.90625 -97.144531 31.140625 -94.195312 31.140625 -90.8125 C 31.140625 -87.425781 29.90625 -84.5 27.4375 -82.03125 C 24.96875 -79.5625 22.039062 -78.328125 18.65625 -78.328125 Z M 18.65625 -78.328125 "/></g></g></g><g fill="#00562c" fill-opacity="1"><g transform="translate(98.58646, 154.964626)"><g><path d="M 7.953125 0 L 7.953125 -100.140625 L 29.21875 -100.140625 L 29.21875 -43.765625 L 38.546875 -43.765625 L 54.59375 -70.375 L 78.328125 -70.375 L 59.40625 -41.015625 C 64.894531 -38.734375 69.171875 -35.234375 72.234375 -30.515625 C 75.296875 -25.804688 76.828125 -20.300781 76.828125 -14 L 76.828125 0 L 55.421875 0 L 55.421875 -14 C 55.421875 -16.550781 54.800781 -18.851562 53.5625 -20.90625 C 52.332031 -22.96875 50.710938 -24.59375 48.703125 -25.78125 C 46.691406 -26.976562 44.40625 -27.578125 41.84375 -27.578125 L 29.21875 -27.578125 L 29.21875 0 Z M 7.953125 0 "/></g></g></g><g fill="#00562c" fill-opacity="1"><g transform="translate(171.69769, 154.964626)"><g><path d="M 7.953125 0 L 7.953125 -100.140625 L 29.21875 -100.140625 L 29.21875 -43.765625 L 38.546875 -43.765625 L 54.59375 -70.375 L 78.328125 -70.375 L 59.40625 -41.015625 C 64.894531 -38.734375 69.171875 -35.234375 72.234375 -30.515625 C 75.296875 -25.804688 76.828125 -20.300781 76.828125 -14 L 76.828125 0 L 55.421875 0 L 55.421875 -14 C 55.421875 -16.550781 54.800781 -18.851562 53.5625 -20.90625 C 52.332031 -22.96875 50.710938 -24.59375 48.703125 -25.78125 C 46.691406 -26.976562 44.40625 -27.578125 41.84375 -27.578125 L 29.21875 -27.578125 L 29.21875 0 Z M 7.953125 0 "/></g></g></g><g fill="#00562c" fill-opacity="1"><g transform="translate(244.808921, 154.964626)"><g><path d="M 42.796875 1.640625 C 35.578125 1.640625 29.082031 0.0390625 23.3125 -3.15625 C 17.550781 -6.351562 13.003906 -10.738281 9.671875 -16.3125 C 6.335938 -21.894531 4.671875 -28.164062 4.671875 -35.125 C 4.671875 -42.164062 6.335938 -48.453125 9.671875 -53.984375 C 13.003906 -59.515625 17.550781 -63.898438 23.3125 -67.140625 C 29.082031 -70.390625 35.578125 -72.015625 42.796875 -72.015625 C 50.023438 -72.015625 56.492188 -70.390625 62.203125 -67.140625 C 67.921875 -63.898438 72.445312 -59.515625 75.78125 -53.984375 C 79.125 -48.453125 80.796875 -42.164062 80.796875 -35.125 C 80.796875 -28.164062 79.125 -21.894531 75.78125 -16.3125 C 72.445312 -10.738281 67.898438 -6.351562 62.140625 -3.15625 C 56.378906 0.0390625 49.929688 1.640625 42.796875 1.640625 Z M 42.796875 -16.875 C 46.179688 -16.875 49.109375 -17.695312 51.578125 -19.34375 C 54.046875 -20.988281 55.96875 -23.179688 57.34375 -25.921875 C 58.71875 -28.671875 59.40625 -31.78125 59.40625 -35.25 C 59.40625 -38.632812 58.71875 -41.695312 57.34375 -44.4375 C 55.96875 -47.1875 54.046875 -49.382812 51.578125 -51.03125 C 49.109375 -52.675781 46.179688 -53.5 42.796875 -53.5 C 39.410156 -53.5 36.460938 -52.675781 33.953125 -51.03125 C 31.441406 -49.382812 29.5 -47.1875 28.125 -44.4375 C 26.75 -41.695312 26.0625 -38.632812 26.0625 -35.25 C 26.0625 -31.78125 26.75 -28.671875 28.125 -25.921875 C 29.5 -23.179688 31.441406 -20.988281 33.953125 -19.34375 C 36.460938 -17.695312 39.410156 -16.875 42.796875 -16.875 Z M 42.796875 -16.875 "/></g></g></g><g fill="#00562c" fill-opacity="1"><g transform="translate(320.800773, 154.964626)"><g><path d="M 18.390625 1.640625 C 14.722656 1.640625 11.585938 0.335938 8.984375 -2.265625 C 6.378906 -4.867188 5.078125 -7.957031 5.078125 -11.53125 C 5.078125 -15.1875 6.378906 -18.316406 8.984375 -20.921875 C 11.585938 -23.523438 14.722656 -24.828125 18.390625 -24.828125 C 21.953125 -24.828125 25.035156 -23.523438 27.640625 -20.921875 C 30.242188 -18.316406 31.546875 -15.1875 31.546875 -11.53125 C 31.546875 -9.144531 30.953125 -6.945312 29.765625 -4.9375 C 28.578125 -2.925781 27 -1.328125 25.03125 -0.140625 C 23.070312 1.046875 20.859375 1.640625 18.390625 1.640625 Z M 18.390625 1.640625 "/></g></g></g></g></g></svg>