<svg xmlns="http://www.w3.org/2000/svg" xmlns:xlink="http://www.w3.org/1999/xlink" width="500" zoomAndPan="magnify" viewBox="0 0 375 374.999991" height="500" preserveAspectRatio="xMidYMid meet" version="1.0"><defs><g/></defs><rect x="-37.5" width="450" fill="#ffffff" y="-37.499999" height="449.999989" fill-opacity="1"/><rect x="-37.5" width="450" fill="#ffffff" y="-37.499999" height="449.999989" fill-opacity="1"/><g fill="#00562c" fill-opacity="1"><g transform="translate(32.498972, 326.999979)"><g><path d="M 168.40625 0 C 151.332031 0 136.328125 -3.796875 123.390625 -11.390625 C 110.460938 -18.992188 100.332031 -29.195312 93 -42 C 85.664062 -54.800781 82 -69.066406 82 -84.796875 L 82 -224 L 6 -224 L 6 -280 L 224.796875 -280 L 224.796875 -224 L 149.203125 -224 L 149.203125 -78.796875 C 149.203125 -72.660156 151.332031 -67.328125 155.59375 -62.796875 C 159.863281 -58.265625 165.195312 -56 171.59375 -56 L 193.59375 -56 L 193.59375 0 Z M 168.40625 0 "/></g></g></g><g fill="#00562c" fill-opacity="1"><g transform="translate(235.697141, 326.999979)"><g><path d="M 53.59375 4.796875 C 42.925781 4.796875 33.789062 1 26.1875 -6.59375 C 18.59375 -14.195312 14.796875 -23.195312 14.796875 -33.59375 C 14.796875 -44.257812 18.59375 -53.394531 26.1875 -61 C 33.789062 -68.601562 42.925781 -72.40625 53.59375 -72.40625 C 64 -72.40625 73 -68.601562 80.59375 -61 C 88.195312 -53.394531 92 -44.257812 92 -33.59375 C 92 -26.664062 90.265625 -20.265625 86.796875 -14.390625 C 83.328125 -8.523438 78.726562 -3.859375 73 -0.390625 C 67.269531 3.066406 60.800781 4.796875 53.59375 4.796875 Z M 53.59375 4.796875 "/></g></g></g></svg>