<svg xmlns="http://www.w3.org/2000/svg" xmlns:xlink="http://www.w3.org/1999/xlink" width="500" zoomAndPan="magnify" viewBox="0 0 375 374.999991" height="500" preserveAspectRatio="xMidYMid meet" version="1.0"><defs><g/><clipPath id="f7f74dd1cc"><path d="M 12.667969 8.203125 L 362.332031 8.203125 L 362.332031 367 L 12.667969 367 Z M 12.667969 8.203125 " clip-rule="nonzero"/></clipPath><clipPath id="fa3248fb0e"><path d="M 53.167969 8.203125 L 321.832031 8.203125 C 344.199219 8.203125 362.332031 26.335938 362.332031 48.703125 L 362.332031 326.296875 C 362.332031 348.664062 344.199219 366.796875 321.832031 366.796875 L 53.167969 366.796875 C 30.800781 366.796875 12.667969 348.664062 12.667969 326.296875 L 12.667969 48.703125 C 12.667969 26.335938 30.800781 8.203125 53.167969 8.203125 Z M 53.167969 8.203125 " clip-rule="nonzero"/></clipPath><clipPath id="613ed29a4f"><path d="M 0.667969 0.203125 L 350.332031 0.203125 L 350.332031 358.960938 L 0.667969 358.960938 Z M 0.667969 0.203125 " clip-rule="nonzero"/></clipPath><clipPath id="4bdb9da0ec"><path d="M 41.167969 0.203125 L 309.832031 0.203125 C 332.199219 0.203125 350.332031 18.335938 350.332031 40.703125 L 350.332031 318.296875 C 350.332031 340.664062 332.199219 358.796875 309.832031 358.796875 L 41.167969 358.796875 C 18.800781 358.796875 0.667969 340.664062 0.667969 318.296875 L 0.667969 40.703125 C 0.667969 18.335938 18.800781 0.203125 41.167969 0.203125 Z M 41.167969 0.203125 " clip-rule="nonzero"/></clipPath><clipPath id="07af4a8bf9"><rect x="0" width="351" y="0" height="359"/></clipPath></defs><g clip-path="url(#f7f74dd1cc)"><g clip-path="url(#fa3248fb0e)"><g transform="matrix(1, 0, 0, 1, 12, 8)"><g clip-path="url(#07af4a8bf9)"><g clip-path="url(#613ed29a4f)"><g clip-path="url(#4bdb9da0ec)"><path fill="#ffffff" d="M 0.667969 0.203125 L 350.332031 0.203125 L 350.332031 359.429688 L 0.667969 359.429688 Z M 0.667969 0.203125 " fill-opacity="1" fill-rule="nonzero"/></g></g></g></g></g></g><g fill="#00562c" fill-opacity="1"><g transform="translate(41.985562, 326.999979)"><g><path d="M 168.40625 0 C 151.332031 0 136.328125 -3.796875 123.390625 -11.390625 C 110.460938 -18.992188 100.332031 -29.195312 93 -42 C 85.664062 -54.800781 82 -69.066406 82 -84.796875 L 82 -224 L 6 -224 L 6 -280 L 224.796875 -280 L 224.796875 -224 L 149.203125 -224 L 149.203125 -78.796875 C 149.203125 -72.660156 151.332031 -67.328125 155.59375 -62.796875 C 159.863281 -58.265625 165.195312 -56 171.59375 -56 L 193.59375 -56 L 193.59375 0 Z M 168.40625 0 "/></g></g></g><g fill="#00562c" fill-opacity="1"><g transform="translate(245.183731, 326.999979)"><g><path d="M 53.59375 4.796875 C 42.925781 4.796875 33.789062 1 26.1875 -6.59375 C 18.59375 -14.195312 14.796875 -23.195312 14.796875 -33.59375 C 14.796875 -44.257812 18.59375 -53.394531 26.1875 -61 C 33.789062 -68.601562 42.925781 -72.40625 53.59375 -72.40625 C 64 -72.40625 73 -68.601562 80.59375 -61 C 88.195312 -53.394531 92 -44.257812 92 -33.59375 C 92 -26.664062 90.265625 -20.265625 86.796875 -14.390625 C 83.328125 -8.523438 78.726562 -3.859375 73 -0.390625 C 67.269531 3.066406 60.800781 4.796875 53.59375 4.796875 Z M 53.59375 4.796875 "/></g></g></g></svg>